<svg fill="#FFFFFF" xmlns:dc="http://purl.org/dc/elements/1.1/" xmlns:cc="http://creativecommons.org/ns#" xmlns:rdf="http://www.w3.org/1999/02/22-rdf-syntax-ns#" xmlns:svg="http://www.w3.org/2000/svg" xmlns="http://www.w3.org/2000/svg" xmlns:sodipodi="http://sodipodi.sourceforge.net/DTD/sodipodi-0.dtd" xmlns:inkscape="http://www.inkscape.org/namespaces/inkscape" version="1.1" x="0px" y="0px" viewBox="0 0 100 100"><g transform="translate(0,-952.36218)"><path style="color:#000000;enable-background:accumulate;" d="m 10,976.36207 c -0.2876,0 -0.5735,0.0366 -0.8438,0.0937 l 38.8126,32.34373 c 0.9571,0.7971 3.1053,0.7971 4.0624,0 l 38.8126,-32.34373 c -0.2703,-0.0571 -0.5562,-0.0937 -0.8438,-0.0937 l -80,0 z m -3.8125,2.875 C 6.083,979.59509 6,979.96939 6,980.36209 l 0,44.00001 c 0,0.3927 0.083,0.767 0.1875,1.125 l 28.75,-22.3125 -28.75,-23.93753 z m 87.625,0 -28.75,23.93753 28.75,22.3125 c 0.1045,-0.358 0.1875,-0.7323 0.1875,-1.125 l 0,-44.00001 c 0,-0.3927 -0.083,-0.767 -0.1875,-1.12502 z m -55.75,26.56253 -28.875,22.4687 c 0.2609,0.053 0.5355,0.094 0.8125,0.094 l 80,0 c 0.277,0 0.5516,-0.041 0.8125,-0.094 l -28.875,-22.4687 -7.3437,6.0937 c -2.6399,2.1982 -6.5477,2.1982 -9.1876,0 l -7.3437,-6.0937 z" fill="#FFFFFF" stroke="none" marker="none" visibility="visible" display="inline" overflow="visible"></path></g></svg>